<svg xmlns="http://www.w3.org/2000/svg" xmlns:xlink="http://www.w3.org/1999/xlink" fill="none" version="1.1" width="585" height="302.79998779296875" viewBox="0 0 585 302.79998779296875"><defs><linearGradient x1="0.5" y1="0" x2="0.5" y2="1" id="master_svg0_1_187"><stop offset="0%" stop-color="#0D6DFF" stop-opacity="0.15000000596046448"/><stop offset="100%" stop-color="#0D6AFF" stop-opacity="1"/></linearGradient></defs><g><path d="M585,137.7L435,0.0999908L413.9,23.1L538.9,137.7L46.2,137.7L171.2,23L150.1,0L0.1,137.7L0,137.7L0,228.4C0,269.4,39.5,302.8,88,302.8L180.5,302.8C229,302.8,268.5,269.4,268.5,228.4L268.5,168.8L316.5,168.8L316.5,228.4C316.5,269.4,356,302.8,404.5,302.8L497,302.8C545.5,302.8,585,269.4,585,228.4L585,137.7Z" fill="url(#master_svg0_1_187)" fill-opacity="1" style="mix-blend-mode:passthrough"/></g></svg>